<svg viewBox="0 0 100 150" xmlns="http://www.w3.org/2000/svg">
  <circle cx="50" cy="50" r="50" stroke-dasharray="5, 5" stroke="white" fill="transparent" />
  <circle cx="50" cy="50" r="20" stroke="white" fill="transparent" />

  <line x1="50" y1="150" x2="50" y2="50" stroke="white" stroke-width="0.1" />
  <line x1="50" y1="50" x2="7.7" y2="75" stroke="white" stroke-dasharray="5, 5" stroke-width="0.1" />
  <line x1="50" y1="50" x2="93.3" y2="75" stroke="white" stroke-dasharray="5, 5" stroke-width="0.1" />
  <line x1="50" y1="150" x2="-7.7" y2="50" stroke="white" stroke-dasharray="5, 5" stroke-width="0.1" />
  <line x1="50" y1="150" x2="107.7" y2="50" stroke="white" stroke-dasharray="5, 5" stroke-width="0.1" />
  <line x1="7.7" y1="75" x2="93.3" y2="75" stroke="white" stroke-dasharray="5, 5" stroke-width="0.1" />

  <line x1="50" y1="50" x2="29.6" y2="54" stroke="white" stroke-width="0.1" />
  <line x1="50" y1="50" x2="70.4" y2="54" stroke="white" stroke-width="0.1" />
  <line x1="50" y1="150" x2="29.6" y2="50" stroke="white" stroke-width="0.1" />
  <line x1="50" y1="150" x2="70.4" y2="50" stroke="white" stroke-width="0.1" />
  <line x1="29.6" y1="54" x2="70.4" y2="54" stroke="white" stroke-width="0.1" />

  <line x1="-0.4" y1="54" x2="100.4" y2="54" stroke="white"  stroke-dasharray="2, 2" stroke-width="0.1" />

  <text x="35" y="50" class="small" fill="white" font-size="8">r</text>
  <text x="20" y="60" class="small" fill="white">R</text>
  <text x="52" y="105" class="small" fill="white" font-size="4">x</text>
  <text x="52" y="75" class="small" fill="white" font-size="2">distance - x</text>
  <text x="50" y="118" class="small" fill="white" font-size="4" style='text-anchor:middle;'>fov(60)</text>
  <text x="50" y="60" class="small" fill="white" font-size="4" style='text-anchor:middle;'>α(156.92)</text>

  <path d="M 50 150 m 0 -5 a 5 5 0 0 1 5 5" fill="none" stroke="orange" stroke-width="0.1"  transform="rotate(-45,50,150)" />
  <path d="M 50 50 m 0 -5 a 5 5 0 0 1 0 10" fill="none" stroke="orange" stroke-width="0.1"  transform="rotate(90,50,50)" />
</svg>