<svg viewBox="0 0 100 150" xmlns="http://www.w3.org/2000/svg">
  <circle cx="50" cy="50" r="50" stroke="white" fill="transparent" />

  <line x1="50" y1="50" x2="20" y2="90" stroke="white" />
  <line x1="50" y1="50" x2="80" y2="90" stroke="white" />
  <line x1="50" y1="125" x2="50" y2="50" stroke="white" stroke-width="0.1" />
  <line x1="50" y1="125" x2="20" y2="90" stroke="white" stroke-width="0.1" />
  <line x1="50" y1="125" x2="80" y2="90" stroke="white" stroke-width="0.1" />
  <line x1="20" y1="90" x2="80" y2="90" stroke="white" stroke-width="0.1" />

  <text x="25" y="70" class="small" fill="white">r</text>
  <text x="52" y="105" class="small" fill="white" font-size="4">x</text>
  <text x="52" y="75" class="small" fill="white" font-size="2">distance - x</text>
  <text x="50" y="118" class="small" fill="white" font-size="4" style='text-anchor:middle;'>fov</text>
  <text x="50" y="60" class="small" fill="white" font-size="4" style='text-anchor:middle;'>α</text>

  <path d="M 50 125 m 0 -5 a 5 5 0 0 1 5 5" fill="none" stroke="orange" stroke-width="0.1"  transform="rotate(-45,50,125)" />
  <path d="M 50 50 m 0 -5 a 5 5 0 0 1 5 5" fill="none" stroke="orange" stroke-width="0.1"  transform="rotate(135,50,50)" />
</svg>